<svg xmlns="http://www.w3.org/2000/svg" xmlns:xlink="http://www.w3.org/1999/xlink" width="300" zoomAndPan="magnify" viewBox="0 0 224.87999 112.499997" height="150" preserveAspectRatio="xMidYMid meet" version="1.2"><defs><clipPath id="6fa2b17478"><path d="M 64.136719 9.386719 L 161 9.386719 L 161 102.511719 L 64.136719 102.511719 Z M 64.136719 9.386719 "/></clipPath><clipPath id="9dcf167a63"><path d="M 102.257812 70.601562 L 122.957031 70.601562 L 122.957031 71 L 102.257812 71 Z M 102.257812 70.601562 "/></clipPath><clipPath id="503bae4040"><path d="M 112.6875 81.261719 L 122.757812 70.789062 L 102.378906 70.789062 Z M 112.6875 81.261719 "/></clipPath><clipPath id="72ac1f9af7"><path d="M 102.257812 70.601562 L 122.957031 70.601562 L 122.957031 72 L 102.257812 72 Z M 102.257812 70.601562 "/></clipPath><clipPath id="78251905bd"><path d="M 112.6875 81.261719 L 122.757812 70.789062 L 102.378906 70.789062 Z M 112.6875 81.261719 "/></clipPath><clipPath id="4220d50a35"><path d="M 102.257812 71 L 122.957031 71 L 122.957031 72 L 102.257812 72 Z M 102.257812 71 "/></clipPath><clipPath id="2362aefaa7"><path d="M 112.6875 81.261719 L 122.757812 70.789062 L 102.378906 70.789062 Z M 112.6875 81.261719 "/></clipPath><clipPath id="28b0a0f2dd"><path d="M 102.257812 71 L 122.957031 71 L 122.957031 73 L 102.257812 73 Z M 102.257812 71 "/></clipPath><clipPath id="c3b3da684e"><path d="M 112.6875 81.261719 L 122.757812 70.789062 L 102.378906 70.789062 Z M 112.6875 81.261719 "/></clipPath><clipPath id="ae35c3c542"><path d="M 102.257812 72 L 122.957031 72 L 122.957031 73 L 102.257812 73 Z M 102.257812 72 "/></clipPath><clipPath id="8458621cc8"><path d="M 112.6875 81.261719 L 122.757812 70.789062 L 102.378906 70.789062 Z M 112.6875 81.261719 "/></clipPath><clipPath id="9c872ee7ec"><path d="M 102.257812 72 L 122.957031 72 L 122.957031 74 L 102.257812 74 Z M 102.257812 72 "/></clipPath><clipPath id="6355cfa292"><path d="M 112.6875 81.261719 L 122.757812 70.789062 L 102.378906 70.789062 Z M 112.6875 81.261719 "/></clipPath><clipPath id="1334b589f6"><path d="M 102.257812 73 L 122.957031 73 L 122.957031 74 L 102.257812 74 Z M 102.257812 73 "/></clipPath><clipPath id="cf1ae7b02a"><path d="M 112.6875 81.261719 L 122.757812 70.789062 L 102.378906 70.789062 Z M 112.6875 81.261719 "/></clipPath><clipPath id="5e8a1766de"><path d="M 102.257812 73 L 122.957031 73 L 122.957031 75 L 102.257812 75 Z M 102.257812 73 "/></clipPath><clipPath id="3ccbd26e5a"><path d="M 112.6875 81.261719 L 122.757812 70.789062 L 102.378906 70.789062 Z M 112.6875 81.261719 "/></clipPath><clipPath id="3e1035eea5"><path d="M 102.257812 74 L 122.957031 74 L 122.957031 75 L 102.257812 75 Z M 102.257812 74 "/></clipPath><clipPath id="f86615dd75"><path d="M 112.6875 81.261719 L 122.757812 70.789062 L 102.378906 70.789062 Z M 112.6875 81.261719 "/></clipPath><clipPath id="1dd4c38230"><path d="M 102.257812 74 L 122.957031 74 L 122.957031 76 L 102.257812 76 Z M 102.257812 74 "/></clipPath><clipPath id="328bf9ac17"><path d="M 112.6875 81.261719 L 122.757812 70.789062 L 102.378906 70.789062 Z M 112.6875 81.261719 "/></clipPath><clipPath id="3518448659"><path d="M 102.257812 75 L 122.957031 75 L 122.957031 76 L 102.257812 76 Z M 102.257812 75 "/></clipPath><clipPath id="e9586fde10"><path d="M 112.6875 81.261719 L 122.757812 70.789062 L 102.378906 70.789062 Z M 112.6875 81.261719 "/></clipPath><clipPath id="01981f9706"><path d="M 102.257812 75 L 122.957031 75 L 122.957031 77 L 102.257812 77 Z M 102.257812 75 "/></clipPath><clipPath id="15d4ad192d"><path d="M 112.6875 81.261719 L 122.757812 70.789062 L 102.378906 70.789062 Z M 112.6875 81.261719 "/></clipPath><clipPath id="3495dbec88"><path d="M 102.257812 76 L 122.957031 76 L 122.957031 77 L 102.257812 77 Z M 102.257812 76 "/></clipPath><clipPath id="60b4065e53"><path d="M 112.6875 81.261719 L 122.757812 70.789062 L 102.378906 70.789062 Z M 112.6875 81.261719 "/></clipPath><clipPath id="dfa02c9e1d"><path d="M 102.257812 76 L 122.957031 76 L 122.957031 78 L 102.257812 78 Z M 102.257812 76 "/></clipPath><clipPath id="d0ed70897d"><path d="M 112.6875 81.261719 L 122.757812 70.789062 L 102.378906 70.789062 Z M 112.6875 81.261719 "/></clipPath><clipPath id="50987cca79"><path d="M 102.257812 77 L 122.957031 77 L 122.957031 78 L 102.257812 78 Z M 102.257812 77 "/></clipPath><clipPath id="3215f14252"><path d="M 112.6875 81.261719 L 122.757812 70.789062 L 102.378906 70.789062 Z M 112.6875 81.261719 "/></clipPath><clipPath id="9690fda9b2"><path d="M 102.257812 77 L 122.957031 77 L 122.957031 79 L 102.257812 79 Z M 102.257812 77 "/></clipPath><clipPath id="d769018a3c"><path d="M 112.6875 81.261719 L 122.757812 70.789062 L 102.378906 70.789062 Z M 112.6875 81.261719 "/></clipPath><clipPath id="4f2356904f"><path d="M 102.257812 78 L 122.957031 78 L 122.957031 79 L 102.257812 79 Z M 102.257812 78 "/></clipPath><clipPath id="4699b6a7b6"><path d="M 112.6875 81.261719 L 122.757812 70.789062 L 102.378906 70.789062 Z M 112.6875 81.261719 "/></clipPath><clipPath id="94802ef86f"><path d="M 102.257812 78 L 122.957031 78 L 122.957031 80 L 102.257812 80 Z M 102.257812 78 "/></clipPath><clipPath id="657cb02a9b"><path d="M 112.6875 81.261719 L 122.757812 70.789062 L 102.378906 70.789062 Z M 112.6875 81.261719 "/></clipPath><clipPath id="f02a90a153"><path d="M 102.257812 79 L 122.957031 79 L 122.957031 80 L 102.257812 80 Z M 102.257812 79 "/></clipPath><clipPath id="17126697fd"><path d="M 112.6875 81.261719 L 122.757812 70.789062 L 102.378906 70.789062 Z M 112.6875 81.261719 "/></clipPath><clipPath id="be874ee50d"><path d="M 102.257812 79 L 122.957031 79 L 122.957031 81 L 102.257812 81 Z M 102.257812 79 "/></clipPath><clipPath id="02e967eefc"><path d="M 112.6875 81.261719 L 122.757812 70.789062 L 102.378906 70.789062 Z M 112.6875 81.261719 "/></clipPath><clipPath id="7e4c696e73"><path d="M 102.257812 80 L 122.957031 80 L 122.957031 81 L 102.257812 81 Z M 102.257812 80 "/></clipPath><clipPath id="9cb47d042e"><path d="M 112.6875 81.261719 L 122.757812 70.789062 L 102.378906 70.789062 Z M 112.6875 81.261719 "/></clipPath><clipPath id="056636cdcb"><path d="M 102.257812 80 L 122.957031 80 L 122.957031 81.394531 L 102.257812 81.394531 Z M 102.257812 80 "/></clipPath><clipPath id="913b3cc0f9"><path d="M 112.6875 81.261719 L 122.757812 70.789062 L 102.378906 70.789062 Z M 112.6875 81.261719 "/></clipPath><clipPath id="ae1c9a77a1"><path d="M 102.257812 81 L 122.957031 81 L 122.957031 81.394531 L 102.257812 81.394531 Z M 102.257812 81 "/></clipPath><clipPath id="ecf2f30e91"><path d="M 112.6875 81.261719 L 122.757812 70.789062 L 102.378906 70.789062 Z M 112.6875 81.261719 "/></clipPath></defs><g id="3d77df70d9"><path style="fill:none;stroke-width:2;stroke-linecap:butt;stroke-linejoin:miter;stroke:#00fefb;stroke-opacity:1;stroke-miterlimit:4;" d="M -0.000151775 1.000777 L 65.570661 1.000777 " transform="matrix(0.763309,0,0,0.763309,166.843866,82.122817)"/><path style="fill:none;stroke-width:2;stroke-linecap:butt;stroke-linejoin:miter;stroke:#00fefb;stroke-opacity:1;stroke-miterlimit:4;" d="M 0.00138532 0.999957 L 65.56708 0.999957 " transform="matrix(0.763309,0,0,0.763309,7.987224,81.74063)"/><g clip-rule="nonzero" clip-path="url(#6fa2b17478)"><path style=" stroke:none;fill-rule:nonzero;fill:#00fefb;fill-opacity:1;" d="M 112.390625 102.507812 L 64.164062 55.644531 L 84.070312 33.96875 L 84.164062 34.050781 L 75.332031 9.386719 L 102.515625 20.347656 L 112.390625 16.820312 L 122.261719 20.347656 L 149.449219 9.386719 L 140.617188 34.050781 L 140.714844 33.96875 L 160.617188 55.644531 Z M 72.578125 55.40625 L 112.390625 94.09375 L 152.203125 55.40625 L 140.160156 42.289062 L 127.476562 52.859375 L 139.234375 20.011719 L 122.398438 26.800781 L 112.390625 23.226562 L 102.386719 26.800781 L 85.546875 20.011719 L 97.308594 52.859375 L 84.625 42.289062 Z M 72.578125 55.40625 "/></g><path style=" stroke:none;fill-rule:nonzero;fill:#f7941d;fill-opacity:1;" d="M 112.6875 81.261719 L 122.757812 70.789062 L 102.378906 70.789062 Z M 112.6875 81.261719 "/><g clip-rule="nonzero" clip-path="url(#9dcf167a63)"><g clip-rule="nonzero" clip-path="url(#503bae4040)"><path style=" stroke:none;fill-rule:nonzero;fill:#ffffff;fill-opacity:1;" d="M 102.378906 70.789062 L 122.757812 70.789062 L 122.757812 70.84375 L 102.378906 70.84375 Z M 102.378906 70.789062 "/><path style=" stroke:none;fill-rule:nonzero;fill:#ffffff;fill-opacity:1;" d="M 102.378906 70.84375 L 122.757812 70.84375 L 122.757812 70.894531 L 102.378906 70.894531 Z M 102.378906 70.84375 "/><path style=" stroke:none;fill-rule:nonzero;fill:#ffffff;fill-opacity:1;" d="M 102.378906 70.894531 L 122.757812 70.894531 L 122.757812 70.949219 L 102.378906 70.949219 Z M 102.378906 70.894531 "/></g></g><g clip-rule="nonzero" clip-path="url(#72ac1f9af7)"><g clip-rule="nonzero" clip-path="url(#78251905bd)"><path style=" stroke:none;fill-rule:nonzero;fill:#ffffff;fill-opacity:1;" d="M 102.378906 70.949219 L 122.757812 70.949219 L 122.757812 71.003906 L 102.378906 71.003906 Z M 102.378906 70.949219 "/></g></g><g clip-rule="nonzero" clip-path="url(#4220d50a35)"><g clip-rule="nonzero" clip-path="url(#2362aefaa7)"><path style=" stroke:none;fill-rule:nonzero;fill:#ffffff;fill-opacity:1;" d="M 102.378906 71.003906 L 122.757812 71.003906 L 122.757812 71.058594 L 102.378906 71.058594 Z M 102.378906 71.003906 "/><path style=" stroke:none;fill-rule:nonzero;fill:#ffffff;fill-opacity:1;" d="M 102.378906 71.058594 L 122.757812 71.058594 L 122.757812 71.109375 L 102.378906 71.109375 Z M 102.378906 71.058594 "/><path style=" stroke:none;fill-rule:nonzero;fill:#ffffff;fill-opacity:1;" d="M 102.378906 71.109375 L 122.757812 71.109375 L 122.757812 71.164062 L 102.378906 71.164062 Z M 102.378906 71.109375 "/><path style=" stroke:none;fill-rule:nonzero;fill:#ffffff;fill-opacity:1;" d="M 102.378906 71.164062 L 122.757812 71.164062 L 122.757812 71.214844 L 102.378906 71.214844 Z M 102.378906 71.164062 "/><path style=" stroke:none;fill-rule:nonzero;fill:#ffffff;fill-opacity:1;" d="M 102.378906 71.21875 L 122.757812 71.21875 L 122.757812 71.269531 L 102.378906 71.269531 Z M 102.378906 71.21875 "/><path style=" stroke:none;fill-rule:nonzero;fill:#ffffff;fill-opacity:1;" d="M 102.378906 71.269531 L 122.757812 71.269531 L 122.757812 71.324219 L 102.378906 71.324219 Z M 102.378906 71.269531 "/><path style=" stroke:none;fill-rule:nonzero;fill:#ffffff;fill-opacity:1;" d="M 102.378906 71.324219 L 122.757812 71.324219 L 122.757812 71.375 L 102.378906 71.375 Z M 102.378906 71.324219 "/><path style=" stroke:none;fill-rule:nonzero;fill:#ffffff;fill-opacity:1;" d="M 102.378906 71.375 L 122.757812 71.375 L 122.757812 71.429688 L 102.378906 71.429688 Z M 102.378906 71.375 "/><path style=" stroke:none;fill-rule:nonzero;fill:#ffffff;fill-opacity:1;" d="M 102.378906 71.429688 L 122.757812 71.429688 L 122.757812 71.484375 L 102.378906 71.484375 Z M 102.378906 71.429688 "/><path style=" stroke:none;fill-rule:nonzero;fill:#ffffff;fill-opacity:1;" d="M 102.378906 71.484375 L 122.757812 71.484375 L 122.757812 71.539062 L 102.378906 71.539062 Z M 102.378906 71.484375 "/><path style=" stroke:none;fill-rule:nonzero;fill:#ffffff;fill-opacity:1;" d="M 102.378906 71.539062 L 122.757812 71.539062 L 122.757812 71.589844 L 102.378906 71.589844 Z M 102.378906 71.539062 "/><path style=" stroke:none;fill-rule:nonzero;fill:#ffffff;fill-opacity:1;" d="M 102.378906 71.589844 L 122.757812 71.589844 L 122.757812 71.644531 L 102.378906 71.644531 Z M 102.378906 71.589844 "/><path style=" stroke:none;fill-rule:nonzero;fill:#ffffff;fill-opacity:1;" d="M 102.378906 71.644531 L 122.757812 71.644531 L 122.757812 71.699219 L 102.378906 71.699219 Z M 102.378906 71.644531 "/><path style=" stroke:none;fill-rule:nonzero;fill:#ffffff;fill-opacity:1;" d="M 102.378906 71.699219 L 122.757812 71.699219 L 122.757812 71.75 L 102.378906 71.75 Z M 102.378906 71.699219 "/><path style=" stroke:none;fill-rule:nonzero;fill:#ffffff;fill-opacity:1;" d="M 102.378906 71.75 L 122.757812 71.75 L 122.757812 71.804688 L 102.378906 71.804688 Z M 102.378906 71.75 "/><path style=" stroke:none;fill-rule:nonzero;fill:#ffffff;fill-opacity:1;" d="M 102.378906 71.804688 L 122.757812 71.804688 L 122.757812 71.859375 L 102.378906 71.859375 Z M 102.378906 71.804688 "/><path style=" stroke:none;fill-rule:nonzero;fill:#ffffff;fill-opacity:1;" d="M 102.378906 71.859375 L 122.757812 71.859375 L 122.757812 71.910156 L 102.378906 71.910156 Z M 102.378906 71.859375 "/><path style=" stroke:none;fill-rule:nonzero;fill:#ffffff;fill-opacity:1;" d="M 102.378906 71.910156 L 122.757812 71.910156 L 122.757812 71.964844 L 102.378906 71.964844 Z M 102.378906 71.910156 "/></g></g><g clip-rule="nonzero" clip-path="url(#28b0a0f2dd)"><g clip-rule="nonzero" clip-path="url(#c3b3da684e)"><path style=" stroke:none;fill-rule:nonzero;fill:#ffffff;fill-opacity:1;" d="M 102.378906 71.964844 L 122.757812 71.964844 L 122.757812 72.015625 L 102.378906 72.015625 Z M 102.378906 71.964844 "/></g></g><g clip-rule="nonzero" clip-path="url(#ae35c3c542)"><g clip-rule="nonzero" clip-path="url(#8458621cc8)"><path style=" stroke:none;fill-rule:nonzero;fill:#ffffff;fill-opacity:1;" d="M 102.378906 72.019531 L 122.757812 72.019531 L 122.757812 72.070312 L 102.378906 72.070312 Z M 102.378906 72.019531 "/><path style=" stroke:none;fill-rule:nonzero;fill:#ffffff;fill-opacity:1;" d="M 102.378906 72.070312 L 122.757812 72.070312 L 122.757812 72.125 L 102.378906 72.125 Z M 102.378906 72.070312 "/><path style=" stroke:none;fill-rule:nonzero;fill:#ffffff;fill-opacity:1;" d="M 102.378906 72.125 L 122.757812 72.125 L 122.757812 72.179688 L 102.378906 72.179688 Z M 102.378906 72.125 "/><path style=" stroke:none;fill-rule:nonzero;fill:#ffffff;fill-opacity:1;" d="M 102.378906 72.179688 L 122.757812 72.179688 L 122.757812 72.230469 L 102.378906 72.230469 Z M 102.378906 72.179688 "/><path style=" stroke:none;fill-rule:nonzero;fill:#ffffff;fill-opacity:1;" d="M 102.378906 72.234375 L 122.757812 72.234375 L 122.757812 72.285156 L 102.378906 72.285156 Z M 102.378906 72.234375 "/><path style=" stroke:none;fill-rule:nonzero;fill:#ffffff;fill-opacity:1;" d="M 102.378906 72.285156 L 122.757812 72.285156 L 122.757812 72.339844 L 102.378906 72.339844 Z M 102.378906 72.285156 "/><path style=" stroke:none;fill-rule:nonzero;fill:#ffffff;fill-opacity:1;" d="M 102.378906 72.339844 L 122.757812 72.339844 L 122.757812 72.390625 L 102.378906 72.390625 Z M 102.378906 72.339844 "/><path style=" stroke:none;fill-rule:nonzero;fill:#ffffff;fill-opacity:1;" d="M 102.378906 72.390625 L 122.757812 72.390625 L 122.757812 72.445312 L 102.378906 72.445312 Z M 102.378906 72.390625 "/><path style=" stroke:none;fill-rule:nonzero;fill:#ffffff;fill-opacity:1;" d="M 102.378906 72.445312 L 122.757812 72.445312 L 122.757812 72.5 L 102.378906 72.5 Z M 102.378906 72.445312 "/><path style=" stroke:none;fill-rule:nonzero;fill:#ffffff;fill-opacity:1;" d="M 102.378906 72.5 L 122.757812 72.5 L 122.757812 72.550781 L 102.378906 72.550781 Z M 102.378906 72.5 "/><path style=" stroke:none;fill-rule:nonzero;fill:#ffffff;fill-opacity:1;" d="M 102.378906 72.550781 L 122.757812 72.550781 L 122.757812 72.605469 L 102.378906 72.605469 Z M 102.378906 72.550781 "/><path style=" stroke:none;fill-rule:nonzero;fill:#ffffff;fill-opacity:1;" d="M 102.378906 72.605469 L 122.757812 72.605469 L 122.757812 72.65625 L 102.378906 72.65625 Z M 102.378906 72.605469 "/><path style=" stroke:none;fill-rule:nonzero;fill:#ffffff;fill-opacity:1;" d="M 102.378906 72.660156 L 122.757812 72.660156 L 122.757812 72.714844 L 102.378906 72.714844 Z M 102.378906 72.660156 "/><path style=" stroke:none;fill-rule:nonzero;fill:#ffffff;fill-opacity:1;" d="M 102.378906 72.714844 L 122.757812 72.714844 L 122.757812 72.765625 L 102.378906 72.765625 Z M 102.378906 72.714844 "/><path style=" stroke:none;fill-rule:nonzero;fill:#ffffff;fill-opacity:1;" d="M 102.378906 72.765625 L 122.757812 72.765625 L 122.757812 72.820312 L 102.378906 72.820312 Z M 102.378906 72.765625 "/><path style=" stroke:none;fill-rule:nonzero;fill:#ffffff;fill-opacity:1;" d="M 102.378906 72.820312 L 122.757812 72.820312 L 122.757812 72.875 L 102.378906 72.875 Z M 102.378906 72.820312 "/><path style=" stroke:none;fill-rule:nonzero;fill:#ffffff;fill-opacity:1;" d="M 102.378906 72.875 L 122.757812 72.875 L 122.757812 72.925781 L 102.378906 72.925781 Z M 102.378906 72.875 "/><path style=" stroke:none;fill-rule:nonzero;fill:#ffffff;fill-opacity:1;" d="M 102.378906 72.925781 L 122.757812 72.925781 L 122.757812 72.980469 L 102.378906 72.980469 Z M 102.378906 72.925781 "/></g></g><g clip-rule="nonzero" clip-path="url(#9c872ee7ec)"><g clip-rule="nonzero" clip-path="url(#6355cfa292)"><path style=" stroke:none;fill-rule:nonzero;fill:#ffffff;fill-opacity:1;" d="M 102.378906 72.980469 L 122.757812 72.980469 L 122.757812 73.03125 L 102.378906 73.03125 Z M 102.378906 72.980469 "/></g></g><g clip-rule="nonzero" clip-path="url(#1334b589f6)"><g clip-rule="nonzero" clip-path="url(#cf1ae7b02a)"><path style=" stroke:none;fill-rule:nonzero;fill:#ffffff;fill-opacity:1;" d="M 102.378906 73.035156 L 122.757812 73.035156 L 122.757812 73.085938 L 102.378906 73.085938 Z M 102.378906 73.035156 "/><path style=" stroke:none;fill-rule:nonzero;fill:#ffffff;fill-opacity:1;" d="M 102.378906 73.085938 L 122.757812 73.085938 L 122.757812 73.140625 L 102.378906 73.140625 Z M 102.378906 73.085938 "/><path style=" stroke:none;fill-rule:nonzero;fill:#ffffff;fill-opacity:1;" d="M 102.378906 73.140625 L 122.757812 73.140625 L 122.757812 73.191406 L 102.378906 73.191406 Z M 102.378906 73.140625 "/><path style=" stroke:none;fill-rule:nonzero;fill:#ffffff;fill-opacity:1;" d="M 102.378906 73.191406 L 122.757812 73.191406 L 122.757812 73.246094 L 102.378906 73.246094 Z M 102.378906 73.191406 "/><path style=" stroke:none;fill-rule:nonzero;fill:#ffffff;fill-opacity:1;" d="M 102.378906 73.25 L 122.757812 73.25 L 122.757812 73.300781 L 102.378906 73.300781 Z M 102.378906 73.25 "/><path style=" stroke:none;fill-rule:nonzero;fill:#ffffff;fill-opacity:1;" d="M 102.378906 73.300781 L 122.757812 73.300781 L 122.757812 73.355469 L 102.378906 73.355469 Z M 102.378906 73.300781 "/><path style=" stroke:none;fill-rule:nonzero;fill:#ffffff;fill-opacity:1;" d="M 102.378906 73.355469 L 122.757812 73.355469 L 122.757812 73.40625 L 102.378906 73.40625 Z M 102.378906 73.355469 "/><path style=" stroke:none;fill-rule:nonzero;fill:#ffffff;fill-opacity:1;" d="M 102.378906 73.40625 L 122.757812 73.40625 L 122.757812 73.460938 L 102.378906 73.460938 Z M 102.378906 73.40625 "/><path style=" stroke:none;fill-rule:nonzero;fill:#ffffff;fill-opacity:1;" d="M 102.378906 73.460938 L 122.757812 73.460938 L 122.757812 73.515625 L 102.378906 73.515625 Z M 102.378906 73.460938 "/><path style=" stroke:none;fill-rule:nonzero;fill:#ffffff;fill-opacity:1;" d="M 102.378906 73.515625 L 122.757812 73.515625 L 122.757812 73.566406 L 102.378906 73.566406 Z M 102.378906 73.515625 "/><path style=" stroke:none;fill-rule:nonzero;fill:#ffffff;fill-opacity:1;" d="M 102.378906 73.566406 L 122.757812 73.566406 L 122.757812 73.621094 L 102.378906 73.621094 Z M 102.378906 73.566406 "/><path style=" stroke:none;fill-rule:nonzero;fill:#ffffff;fill-opacity:1;" d="M 102.378906 73.621094 L 122.757812 73.621094 L 122.757812 73.675781 L 102.378906 73.675781 Z M 102.378906 73.621094 "/><path style=" stroke:none;fill-rule:nonzero;fill:#ffffff;fill-opacity:1;" d="M 102.378906 73.675781 L 122.757812 73.675781 L 122.757812 73.726562 L 102.378906 73.726562 Z M 102.378906 73.675781 "/><path style=" stroke:none;fill-rule:nonzero;fill:#ffffff;fill-opacity:1;" d="M 102.378906 73.726562 L 122.757812 73.726562 L 122.757812 73.78125 L 102.378906 73.78125 Z M 102.378906 73.726562 "/><path style=" stroke:none;fill-rule:nonzero;fill:#ffffff;fill-opacity:1;" d="M 102.378906 73.78125 L 122.757812 73.78125 L 122.757812 73.832031 L 102.378906 73.832031 Z M 102.378906 73.78125 "/><path style=" stroke:none;fill-rule:nonzero;fill:#ffffff;fill-opacity:1;" d="M 102.378906 73.835938 L 122.757812 73.835938 L 122.757812 73.890625 L 102.378906 73.890625 Z M 102.378906 73.835938 "/><path style=" stroke:none;fill-rule:nonzero;fill:#ffffff;fill-opacity:1;" d="M 102.378906 73.890625 L 122.757812 73.890625 L 122.757812 73.941406 L 102.378906 73.941406 Z M 102.378906 73.890625 "/><path style=" stroke:none;fill-rule:nonzero;fill:#ffffff;fill-opacity:1;" d="M 102.378906 73.941406 L 122.757812 73.941406 L 122.757812 73.996094 L 102.378906 73.996094 Z M 102.378906 73.941406 "/></g></g><g clip-rule="nonzero" clip-path="url(#5e8a1766de)"><g clip-rule="nonzero" clip-path="url(#3ccbd26e5a)"><path style=" stroke:none;fill-rule:nonzero;fill:#ffffff;fill-opacity:1;" d="M 102.378906 73.996094 L 122.757812 73.996094 L 122.757812 74.046875 L 102.378906 74.046875 Z M 102.378906 73.996094 "/></g></g><g clip-rule="nonzero" clip-path="url(#3e1035eea5)"><g clip-rule="nonzero" clip-path="url(#f86615dd75)"><path style=" stroke:none;fill-rule:nonzero;fill:#ffffff;fill-opacity:1;" d="M 102.378906 74.050781 L 122.757812 74.050781 L 122.757812 74.101562 L 102.378906 74.101562 Z M 102.378906 74.050781 "/><path style=" stroke:none;fill-rule:nonzero;fill:#ffffff;fill-opacity:1;" d="M 102.378906 74.101562 L 122.757812 74.101562 L 122.757812 74.15625 L 102.378906 74.15625 Z M 102.378906 74.101562 "/><path style=" stroke:none;fill-rule:nonzero;fill:#ffffff;fill-opacity:1;" d="M 102.378906 74.15625 L 122.757812 74.15625 L 122.757812 74.207031 L 102.378906 74.207031 Z M 102.378906 74.15625 "/><path style=" stroke:none;fill-rule:nonzero;fill:#ffffff;fill-opacity:1;" d="M 102.378906 74.207031 L 122.757812 74.207031 L 122.757812 74.261719 L 102.378906 74.261719 Z M 102.378906 74.207031 "/><path style=" stroke:none;fill-rule:nonzero;fill:#ffffff;fill-opacity:1;" d="M 102.378906 74.261719 L 122.757812 74.261719 L 122.757812 74.316406 L 102.378906 74.316406 Z M 102.378906 74.261719 "/><path style=" stroke:none;fill-rule:nonzero;fill:#ffffff;fill-opacity:1;" d="M 102.378906 74.316406 L 122.757812 74.316406 L 122.757812 74.367188 L 102.378906 74.367188 Z M 102.378906 74.316406 "/><path style=" stroke:none;fill-rule:nonzero;fill:#ffffff;fill-opacity:1;" d="M 102.378906 74.367188 L 122.757812 74.367188 L 122.757812 74.421875 L 102.378906 74.421875 Z M 102.378906 74.367188 "/><path style=" stroke:none;fill-rule:nonzero;fill:#ffffff;fill-opacity:1;" d="M 102.378906 74.421875 L 122.757812 74.421875 L 122.757812 74.476562 L 102.378906 74.476562 Z M 102.378906 74.421875 "/><path style=" stroke:none;fill-rule:nonzero;fill:#ffffff;fill-opacity:1;" d="M 102.378906 74.476562 L 122.757812 74.476562 L 122.757812 74.53125 L 102.378906 74.53125 Z M 102.378906 74.476562 "/><path style=" stroke:none;fill-rule:nonzero;fill:#ffffff;fill-opacity:1;" d="M 102.378906 74.53125 L 122.757812 74.53125 L 122.757812 74.582031 L 102.378906 74.582031 Z M 102.378906 74.53125 "/><path style=" stroke:none;fill-rule:nonzero;fill:#ffffff;fill-opacity:1;" d="M 102.378906 74.582031 L 122.757812 74.582031 L 122.757812 74.636719 L 102.378906 74.636719 Z M 102.378906 74.582031 "/><path style=" stroke:none;fill-rule:nonzero;fill:#ffffff;fill-opacity:1;" d="M 102.378906 74.636719 L 122.757812 74.636719 L 122.757812 74.691406 L 102.378906 74.691406 Z M 102.378906 74.636719 "/><path style=" stroke:none;fill-rule:nonzero;fill:#ffffff;fill-opacity:1;" d="M 102.378906 74.691406 L 122.757812 74.691406 L 122.757812 74.742188 L 102.378906 74.742188 Z M 102.378906 74.691406 "/><path style=" stroke:none;fill-rule:nonzero;fill:#ffffff;fill-opacity:1;" d="M 102.378906 74.742188 L 122.757812 74.742188 L 122.757812 74.796875 L 102.378906 74.796875 Z M 102.378906 74.742188 "/><path style=" stroke:none;fill-rule:nonzero;fill:#ffffff;fill-opacity:1;" d="M 102.378906 74.796875 L 122.757812 74.796875 L 122.757812 74.847656 L 102.378906 74.847656 Z M 102.378906 74.796875 "/><path style=" stroke:none;fill-rule:nonzero;fill:#ffffff;fill-opacity:1;" d="M 102.378906 74.851562 L 122.757812 74.851562 L 122.757812 74.902344 L 102.378906 74.902344 Z M 102.378906 74.851562 "/><path style=" stroke:none;fill-rule:nonzero;fill:#ffffff;fill-opacity:1;" d="M 102.378906 74.902344 L 122.757812 74.902344 L 122.757812 74.957031 L 102.378906 74.957031 Z M 102.378906 74.902344 "/></g></g><g clip-rule="nonzero" clip-path="url(#1dd4c38230)"><g clip-rule="nonzero" clip-path="url(#328bf9ac17)"><path style=" stroke:none;fill-rule:nonzero;fill:#ffffff;fill-opacity:1;" d="M 102.378906 74.957031 L 122.757812 74.957031 L 122.757812 75.007812 L 102.378906 75.007812 Z M 102.378906 74.957031 "/></g></g><g clip-rule="nonzero" clip-path="url(#3518448659)"><g clip-rule="nonzero" clip-path="url(#e9586fde10)"><path style=" stroke:none;fill-rule:nonzero;fill:#ffffff;fill-opacity:1;" d="M 102.378906 75.007812 L 122.757812 75.007812 L 122.757812 75.0625 L 102.378906 75.0625 Z M 102.378906 75.007812 "/><path style=" stroke:none;fill-rule:nonzero;fill:#ffffff;fill-opacity:1;" d="M 102.378906 75.066406 L 122.757812 75.066406 L 122.757812 75.117188 L 102.378906 75.117188 Z M 102.378906 75.066406 "/><path style=" stroke:none;fill-rule:nonzero;fill:#ffffff;fill-opacity:1;" d="M 102.378906 75.117188 L 122.757812 75.117188 L 122.757812 75.171875 L 102.378906 75.171875 Z M 102.378906 75.117188 "/><path style=" stroke:none;fill-rule:nonzero;fill:#ffffff;fill-opacity:1;" d="M 102.378906 75.171875 L 122.757812 75.171875 L 122.757812 75.222656 L 102.378906 75.222656 Z M 102.378906 75.171875 "/><path style=" stroke:none;fill-rule:nonzero;fill:#ffffff;fill-opacity:1;" d="M 102.378906 75.222656 L 122.757812 75.222656 L 122.757812 75.277344 L 102.378906 75.277344 Z M 102.378906 75.222656 "/><path style=" stroke:none;fill-rule:nonzero;fill:#ffffff;fill-opacity:1;" d="M 102.378906 75.277344 L 122.757812 75.277344 L 122.757812 75.332031 L 102.378906 75.332031 Z M 102.378906 75.277344 "/><path style=" stroke:none;fill-rule:nonzero;fill:#ffffff;fill-opacity:1;" d="M 102.378906 75.332031 L 122.757812 75.332031 L 122.757812 75.382812 L 102.378906 75.382812 Z M 102.378906 75.332031 "/><path style=" stroke:none;fill-rule:nonzero;fill:#ffffff;fill-opacity:1;" d="M 102.378906 75.382812 L 122.757812 75.382812 L 122.757812 75.4375 L 102.378906 75.4375 Z M 102.378906 75.382812 "/><path style=" stroke:none;fill-rule:nonzero;fill:#ffffff;fill-opacity:1;" d="M 102.378906 75.4375 L 122.757812 75.4375 L 122.757812 75.488281 L 102.378906 75.488281 Z M 102.378906 75.4375 "/><path style=" stroke:none;fill-rule:nonzero;fill:#ffffff;fill-opacity:1;" d="M 102.378906 75.492188 L 122.757812 75.492188 L 122.757812 75.542969 L 102.378906 75.542969 Z M 102.378906 75.492188 "/><path style=" stroke:none;fill-rule:nonzero;fill:#ffffff;fill-opacity:1;" d="M 102.378906 75.542969 L 122.757812 75.542969 L 122.757812 75.597656 L 102.378906 75.597656 Z M 102.378906 75.542969 "/><path style=" stroke:none;fill-rule:nonzero;fill:#ffffff;fill-opacity:1;" d="M 102.378906 75.597656 L 122.757812 75.597656 L 122.757812 75.652344 L 102.378906 75.652344 Z M 102.378906 75.597656 "/><path style=" stroke:none;fill-rule:nonzero;fill:#ffffff;fill-opacity:1;" d="M 102.378906 75.652344 L 122.757812 75.652344 L 122.757812 75.707031 L 102.378906 75.707031 Z M 102.378906 75.652344 "/><path style=" stroke:none;fill-rule:nonzero;fill:#ffffff;fill-opacity:1;" d="M 102.378906 75.707031 L 122.757812 75.707031 L 122.757812 75.757812 L 102.378906 75.757812 Z M 102.378906 75.707031 "/><path style=" stroke:none;fill-rule:nonzero;fill:#ffffff;fill-opacity:1;" d="M 102.378906 75.757812 L 122.757812 75.757812 L 122.757812 75.8125 L 102.378906 75.8125 Z M 102.378906 75.757812 "/><path style=" stroke:none;fill-rule:nonzero;fill:#ffffff;fill-opacity:1;" d="M 102.378906 75.8125 L 122.757812 75.8125 L 122.757812 75.863281 L 102.378906 75.863281 Z M 102.378906 75.8125 "/><path style=" stroke:none;fill-rule:nonzero;fill:#ffffff;fill-opacity:1;" d="M 102.378906 75.867188 L 122.757812 75.867188 L 122.757812 75.917969 L 102.378906 75.917969 Z M 102.378906 75.867188 "/><path style=" stroke:none;fill-rule:nonzero;fill:#ffffff;fill-opacity:1;" d="M 102.378906 75.917969 L 122.757812 75.917969 L 122.757812 75.972656 L 102.378906 75.972656 Z M 102.378906 75.917969 "/></g></g><g clip-rule="nonzero" clip-path="url(#01981f9706)"><g clip-rule="nonzero" clip-path="url(#15d4ad192d)"><path style=" stroke:none;fill-rule:nonzero;fill:#ffffff;fill-opacity:1;" d="M 102.378906 75.972656 L 122.757812 75.972656 L 122.757812 76.023438 L 102.378906 76.023438 Z M 102.378906 75.972656 "/></g></g><g clip-rule="nonzero" clip-path="url(#3495dbec88)"><g clip-rule="nonzero" clip-path="url(#60b4065e53)"><path style=" stroke:none;fill-rule:nonzero;fill:#ffffff;fill-opacity:1;" d="M 102.378906 76.023438 L 122.757812 76.023438 L 122.757812 76.207031 L 102.378906 76.207031 Z M 102.378906 76.023438 "/><path style=" stroke:none;fill-rule:nonzero;fill:#ffffff;fill-opacity:1;" d="M 102.378906 76.207031 L 122.757812 76.207031 L 122.757812 76.386719 L 102.378906 76.386719 Z M 102.378906 76.207031 "/><path style=" stroke:none;fill-rule:nonzero;fill:#ffffff;fill-opacity:1;" d="M 102.378906 76.386719 L 122.757812 76.386719 L 122.757812 76.566406 L 102.378906 76.566406 Z M 102.378906 76.386719 "/><path style=" stroke:none;fill-rule:nonzero;fill:#ffffff;fill-opacity:1;" d="M 102.378906 76.566406 L 122.757812 76.566406 L 122.757812 76.746094 L 102.378906 76.746094 Z M 102.378906 76.566406 "/><path style=" stroke:none;fill-rule:nonzero;fill:#ffffff;fill-opacity:1;" d="M 102.378906 76.746094 L 122.757812 76.746094 L 122.757812 76.925781 L 102.378906 76.925781 Z M 102.378906 76.746094 "/></g></g><g clip-rule="nonzero" clip-path="url(#dfa02c9e1d)"><g clip-rule="nonzero" clip-path="url(#d0ed70897d)"><path style=" stroke:none;fill-rule:nonzero;fill:#ffffff;fill-opacity:1;" d="M 102.378906 76.925781 L 122.757812 76.925781 L 122.757812 77.109375 L 102.378906 77.109375 Z M 102.378906 76.925781 "/></g></g><g clip-rule="nonzero" clip-path="url(#50987cca79)"><g clip-rule="nonzero" clip-path="url(#3215f14252)"><path style=" stroke:none;fill-rule:nonzero;fill:#ffffff;fill-opacity:1;" d="M 102.378906 77.109375 L 122.757812 77.109375 L 122.757812 77.289062 L 102.378906 77.289062 Z M 102.378906 77.109375 "/><path style=" stroke:none;fill-rule:nonzero;fill:#ffffff;fill-opacity:1;" d="M 102.378906 77.289062 L 122.757812 77.289062 L 122.757812 77.46875 L 102.378906 77.46875 Z M 102.378906 77.289062 "/><path style=" stroke:none;fill-rule:nonzero;fill:#ffffff;fill-opacity:1;" d="M 102.378906 77.46875 L 122.757812 77.46875 L 122.757812 77.648438 L 102.378906 77.648438 Z M 102.378906 77.46875 "/><path style=" stroke:none;fill-rule:nonzero;fill:#ffffff;fill-opacity:1;" d="M 102.378906 77.648438 L 122.757812 77.648438 L 122.757812 77.832031 L 102.378906 77.832031 Z M 102.378906 77.648438 "/></g></g><g clip-rule="nonzero" clip-path="url(#9690fda9b2)"><g clip-rule="nonzero" clip-path="url(#d769018a3c)"><path style=" stroke:none;fill-rule:nonzero;fill:#ffffff;fill-opacity:1;" d="M 102.378906 77.832031 L 122.757812 77.832031 L 122.757812 78.011719 L 102.378906 78.011719 Z M 102.378906 77.832031 "/></g></g><g clip-rule="nonzero" clip-path="url(#4f2356904f)"><g clip-rule="nonzero" clip-path="url(#4699b6a7b6)"><path style=" stroke:none;fill-rule:nonzero;fill:#ffffff;fill-opacity:1;" d="M 102.378906 78.011719 L 122.757812 78.011719 L 122.757812 78.191406 L 102.378906 78.191406 Z M 102.378906 78.011719 "/><path style=" stroke:none;fill-rule:nonzero;fill:#ffffff;fill-opacity:1;" d="M 102.378906 78.191406 L 122.757812 78.191406 L 122.757812 78.371094 L 102.378906 78.371094 Z M 102.378906 78.191406 "/><path style=" stroke:none;fill-rule:nonzero;fill:#ffffff;fill-opacity:1;" d="M 102.378906 78.371094 L 122.757812 78.371094 L 122.757812 78.554688 L 102.378906 78.554688 Z M 102.378906 78.371094 "/><path style=" stroke:none;fill-rule:nonzero;fill:#ffffff;fill-opacity:1;" d="M 102.378906 78.554688 L 122.757812 78.554688 L 122.757812 78.734375 L 102.378906 78.734375 Z M 102.378906 78.554688 "/><path style=" stroke:none;fill-rule:nonzero;fill:#ffffff;fill-opacity:1;" d="M 102.378906 78.734375 L 122.757812 78.734375 L 122.757812 78.914062 L 102.378906 78.914062 Z M 102.378906 78.734375 "/></g></g><g clip-rule="nonzero" clip-path="url(#94802ef86f)"><g clip-rule="nonzero" clip-path="url(#657cb02a9b)"><path style=" stroke:none;fill-rule:nonzero;fill:#ffffff;fill-opacity:1;" d="M 102.378906 78.914062 L 122.757812 78.914062 L 122.757812 79.09375 L 102.378906 79.09375 Z M 102.378906 78.914062 "/></g></g><g clip-rule="nonzero" clip-path="url(#f02a90a153)"><g clip-rule="nonzero" clip-path="url(#17126697fd)"><path style=" stroke:none;fill-rule:nonzero;fill:#ffffff;fill-opacity:1;" d="M 102.378906 79.09375 L 122.757812 79.09375 L 122.757812 79.273438 L 102.378906 79.273438 Z M 102.378906 79.09375 "/><path style=" stroke:none;fill-rule:nonzero;fill:#ffffff;fill-opacity:1;" d="M 102.378906 79.273438 L 122.757812 79.273438 L 122.757812 79.457031 L 102.378906 79.457031 Z M 102.378906 79.273438 "/><path style=" stroke:none;fill-rule:nonzero;fill:#ffffff;fill-opacity:1;" d="M 102.378906 79.457031 L 122.757812 79.457031 L 122.757812 79.636719 L 102.378906 79.636719 Z M 102.378906 79.457031 "/><path style=" stroke:none;fill-rule:nonzero;fill:#ffffff;fill-opacity:1;" d="M 102.378906 79.636719 L 122.757812 79.636719 L 122.757812 79.816406 L 102.378906 79.816406 Z M 102.378906 79.636719 "/><path style=" stroke:none;fill-rule:nonzero;fill:#ffffff;fill-opacity:1;" d="M 102.378906 79.816406 L 122.757812 79.816406 L 122.757812 79.996094 L 102.378906 79.996094 Z M 102.378906 79.816406 "/></g></g><g clip-rule="nonzero" clip-path="url(#be874ee50d)"><g clip-rule="nonzero" clip-path="url(#02e967eefc)"><path style=" stroke:none;fill-rule:nonzero;fill:#ffffff;fill-opacity:1;" d="M 102.378906 79.996094 L 122.757812 79.996094 L 122.757812 80.179688 L 102.378906 80.179688 Z M 102.378906 79.996094 "/></g></g><g clip-rule="nonzero" clip-path="url(#7e4c696e73)"><g clip-rule="nonzero" clip-path="url(#9cb47d042e)"><path style=" stroke:none;fill-rule:nonzero;fill:#ffffff;fill-opacity:1;" d="M 102.378906 80.179688 L 122.757812 80.179688 L 122.757812 80.359375 L 102.378906 80.359375 Z M 102.378906 80.179688 "/><path style=" stroke:none;fill-rule:nonzero;fill:#ffffff;fill-opacity:1;" d="M 102.378906 80.359375 L 122.757812 80.359375 L 122.757812 80.539062 L 102.378906 80.539062 Z M 102.378906 80.359375 "/><path style=" stroke:none;fill-rule:nonzero;fill:#ffffff;fill-opacity:1;" d="M 102.378906 80.539062 L 122.757812 80.539062 L 122.757812 80.71875 L 102.378906 80.71875 Z M 102.378906 80.539062 "/><path style=" stroke:none;fill-rule:nonzero;fill:#ffffff;fill-opacity:1;" d="M 102.378906 80.71875 L 122.757812 80.71875 L 122.757812 80.898438 L 102.378906 80.898438 Z M 102.378906 80.71875 "/></g></g><g clip-rule="nonzero" clip-path="url(#056636cdcb)"><g clip-rule="nonzero" clip-path="url(#913b3cc0f9)"><path style=" stroke:none;fill-rule:nonzero;fill:#ffffff;fill-opacity:1;" d="M 102.378906 80.898438 L 122.757812 80.898438 L 122.757812 81.082031 L 102.378906 81.082031 Z M 102.378906 80.898438 "/></g></g><g clip-rule="nonzero" clip-path="url(#ae1c9a77a1)"><g clip-rule="nonzero" clip-path="url(#ecf2f30e91)"><path style=" stroke:none;fill-rule:nonzero;fill:#ffffff;fill-opacity:1;" d="M 102.378906 81.082031 L 122.757812 81.082031 L 122.757812 81.261719 L 102.378906 81.261719 Z M 102.378906 81.082031 "/></g></g></g></svg>